<svg width="56" height="16" viewBox="0 0 56 16" fill="none" xmlns="http://www.w3.org/2000/svg">
<path id="Arrow 13" d="M55 9C55.5523 9 56 8.55228 56 8C56 7.44772 55.5523 7 55 7V9ZM0.292889 7.29289C-0.0976334 7.68342 -0.0976334 8.31658 0.292889 8.70711L6.65685 15.0711C7.04737 15.4616 7.68054 15.4616 8.07106 15.0711C8.46159 14.6805 8.46159 14.0474 8.07106 13.6569L2.41421 8L8.07106 2.34315C8.46159 1.95262 8.46159 1.31946 8.07106 0.928932C7.68054 0.538408 7.04737 0.538408 6.65685 0.928932L0.292889 7.29289ZM55 7L0.999996 7V9L55 9V7Z" fill="#37384C"/>
</svg>
