<svg width="56" height="16" viewBox="0 0 56 16" fill="none" xmlns="http://www.w3.org/2000/svg">
<path id="Arrow 14" d="M1 9C0.447715 9 0 8.55228 0 8C0 7.44772 0.447715 7 1 7L1 9ZM55.7071 7.29289C56.0976 7.68342 56.0976 8.31658 55.7071 8.70711L49.3432 15.0711C48.9526 15.4616 48.3195 15.4616 47.9289 15.0711C47.5384 14.6805 47.5384 14.0474 47.9289 13.6569L53.5858 8L47.9289 2.34315C47.5384 1.95262 47.5384 1.31946 47.9289 0.928932C48.3195 0.538408 48.9526 0.538408 49.3432 0.928932L55.7071 7.29289ZM1 7L55 7V9L1 9L1 7Z" fill="#37384C"/>
</svg>
